{
	"asset":{
		"version":"2.0",
		"generator":"Maxon Cinema 4D 2025.0.1 (#200000219)"
	},
	"scenes":[{
		"nodes":[0]
	}],
	"nodes":[{
		"name":"ROULETTE SPECIAL",
		"children":[1,
		2,
		3,
		4,
		5,
		6,
		7]
	},
	{
		"name":"ATTACHE",
		"mesh":0,
		"translation":[0.1899999976158142,
		0.055694323033094409,
		-0.05000000074505806],
		"rotation":[0.0,
		0.0,
		0.0,
		-1.0],
		"scale":[1.0,
		1.0,
		1.0]
	},
	{
		"name":"FLECHES",
		"children":[8,
		9]
	},
	{
		"name":"BASE",
		"mesh":1
	},
	{
		"name":"VOLET HAUT",
		"mesh":2,
		"translation":[0.0,
		0.051500000059604648,
		0.0949999988079071],
		"rotation":[0.0,
		0.0,
		0.0,
		-1.0],
		"scale":[1.0,
		1.0,
		1.0]
	},
	{
		"name":"VOLET BAS",
		"mesh":3,
		"translation":[0.0,
		-0.051500000059604648,
		0.0949999988079071],
		"rotation":[0.0,
		0.0,
		0.0,
		-1.0],
		"scale":[1.0,
		1.0,
		1.0]
	},
	{
		"name":"ROULETTE1 ",
		"mesh":4,
		"translation":[0.125,
		0.0,
		-0.029999999329447748],
		"rotation":[0.0,
		0.0,
		0.0,
		-1.0],
		"scale":[1.0,
		1.0,
		1.0]
	},
	{
		"name":"ROULETTE2",
		"mesh":5,
		"translation":[-0.125,
		0.0,
		-0.029999999329447748],
		"rotation":[0.0,
		0.0,
		0.0,
		-1.0],
		"scale":[1.0,
		1.0,
		1.0]
	},
	{
		"name":"FLECHES-OCTANE SILVER",
		"mesh":6
	},
	{
		"name":"FLECHES-OCTANE IRON",
		"mesh":7
	}],
	"meshes":[{
		"name":"ATTACHE",
		"primitives":[{
			"material":0,
			"attributes":{
				"POSITION":1,
				"NORMAL":2,
				"TEXCOORD_0":3
			},
			"indices":0
		}]
	},
	{
		"name":"BASE",
		"primitives":[{
			"material":1,
			"attributes":{
				"POSITION":5,
				"NORMAL":6,
				"TEXCOORD_0":7
			},
			"indices":4
		}]
	},
	{
		"name":"VOLET HAUT",
		"primitives":[{
			"material":2,
			"attributes":{
				"POSITION":9,
				"NORMAL":10,
				"TEXCOORD_0":11
			},
			"indices":8
		}]
	},
	{
		"name":"VOLET BAS",
		"primitives":[{
			"material":3,
			"attributes":{
				"POSITION":13,
				"NORMAL":14,
				"TEXCOORD_0":15
			},
			"indices":12
		}]
	},
	{
		"name":"ROULETTE1 ",
		"primitives":[{
			"attributes":{
				"POSITION":17,
				"NORMAL":18,
				"TEXCOORD_0":19
			},
			"indices":16
		}]
	},
	{
		"name":"ROULETTE2",
		"primitives":[{
			"attributes":{
				"POSITION":21,
				"NORMAL":22,
				"TEXCOORD_0":23
			},
			"indices":20
		}]
	},
	{
		"name":"FLECHES-OCTANE SILVER",
		"primitives":[{
			"material":4,
			"attributes":{
				"POSITION":25,
				"NORMAL":26,
				"TEXCOORD_0":27
			},
			"indices":24
		}]
	},
	{
		"name":"FLECHES-OCTANE IRON",
		"primitives":[{
			"material":5,
			"attributes":{
				"POSITION":29,
				"NORMAL":30,
				"TEXCOORD_0":31
			},
			"indices":28
		}]
	}],
	"accessors":[{
		"bufferView":0,
		"min":[0],
		"type":"SCALAR",
		"componentType":5123,
		"count":966,
		"byteOffset":0,
		"max":[281]
	},
	{
		"bufferView":1,
		"min":[-0.6050000190734863,
		-0.004305677022784948,
		-0.0625],
		"type":"VEC3",
		"componentType":5126,
		"count":282,
		"byteOffset":0,
		"max":[0.22499999403953553,
		0.7344903349876404,
		0.009999999776482582]
	},
	{
		"bufferView":1,
		"min":[-1.0,
		-1.0,
		0.0],
		"type":"VEC3",
		"componentType":5126,
		"count":282,
		"byteOffset":12,
		"max":[1.0,
		0.9980332851409912,
		0.9988963603973389]
	},
	{
		"bufferView":1,
		"min":[0.011742536909878254,
		0.12975481152534486],
		"type":"VEC2",
		"componentType":5126,
		"count":282,
		"byteOffset":24,
		"max":[0.9562499523162842,
		0.9207699298858643]
	},
	{
		"bufferView":2,
		"min":[0],
		"type":"SCALAR",
		"componentType":5123,
		"count":1404,
		"byteOffset":0,
		"max":[369]
	},
	{
		"bufferView":3,
		"min":[-0.3499999940395355,
		-0.20000000298023225,
		-0.2475000023841858],
		"type":"VEC3",
		"componentType":5126,
		"count":370,
		"byteOffset":0,
		"max":[0.3499999940395355,
		0.20000000298023225,
		0.10000000149011612]
	},
	{
		"bufferView":3,
		"min":[-0.9988963603973389,
		-0.9980332851409912,
		0.0],
		"type":"VEC3",
		"componentType":5126,
		"count":370,
		"byteOffset":12,
		"max":[0.9971647262573242,
		0.9983327984809876,
		0.998020350933075]
	},
	{
		"bufferView":3,
		"min":[0.07403454929590225,
		0.01174253597855568],
		"type":"VEC2",
		"componentType":5126,
		"count":370,
		"byteOffset":24,
		"max":[0.9882574677467346,
		0.9063234329223633]
	},
	{
		"bufferView":4,
		"min":[0],
		"type":"SCALAR",
		"componentType":5123,
		"count":6,
		"byteOffset":0,
		"max":[3]
	},
	{
		"bufferView":5,
		"min":[-0.25,
		-0.05000000074505806,
		0.0],
		"type":"VEC3",
		"componentType":5126,
		"count":4,
		"byteOffset":0,
		"max":[0.25,
		0.05000000074505806,
		0.0]
	},
	{
		"bufferView":5,
		"min":[0.0,
		0.0,
		1.0],
		"type":"VEC3",
		"componentType":5126,
		"count":4,
		"byteOffset":12,
		"max":[0.0,
		0.0,
		1.0]
	},
	{
		"bufferView":5,
		"min":[0.0028071333654224874,
		0.0028071333654224874],
		"type":"VEC2",
		"componentType":5126,
		"count":4,
		"byteOffset":24,
		"max":[0.9971928596496582,
		0.2061021625995636]
	},
	{
		"bufferView":6,
		"min":[0],
		"type":"SCALAR",
		"componentType":5123,
		"count":6,
		"byteOffset":0,
		"max":[3]
	},
	{
		"bufferView":7,
		"min":[-0.25,
		-0.05000000074505806,
		0.0],
		"type":"VEC3",
		"componentType":5126,
		"count":4,
		"byteOffset":0,
		"max":[0.25,
		0.05000000074505806,
		0.0]
	},
	{
		"bufferView":7,
		"min":[0.0,
		0.0,
		1.0],
		"type":"VEC3",
		"componentType":5126,
		"count":4,
		"byteOffset":12,
		"max":[0.0,
		0.0,
		1.0]
	},
	{
		"bufferView":7,
		"min":[0.0027725454419851305,
		0.0027725454419851305],
		"type":"VEC2",
		"componentType":5126,
		"count":4,
		"byteOffset":24,
		"max":[0.9972274303436279,
		0.20266193151474]
	},
	{
		"bufferView":8,
		"min":[0],
		"type":"SCALAR",
		"componentType":5123,
		"count":192,
		"byteOffset":0,
		"max":[73]
	},
	{
		"bufferView":9,
		"min":[-0.125,
		-0.11999999731779099,
		-1.469576190014977e-17],
		"type":"VEC3",
		"componentType":5126,
		"count":74,
		"byteOffset":0,
		"max":[0.125,
		0.11999999731779099,
		0.11999999731779099]
	},
	{
		"bufferView":9,
		"min":[-1.0,
		-0.9951861500740051,
		0.0],
		"type":"VEC3",
		"componentType":5126,
		"count":74,
		"byteOffset":12,
		"max":[1.0,
		0.9951861500740051,
		0.9994615912437439]
	},
	{
		"bufferView":9,
		"min":[0.0,
		0.0],
		"type":"VEC2",
		"componentType":5126,
		"count":74,
		"byteOffset":24,
		"max":[1.0,
		1.0]
	},
	{
		"bufferView":10,
		"min":[0],
		"type":"SCALAR",
		"componentType":5123,
		"count":192,
		"byteOffset":0,
		"max":[73]
	},
	{
		"bufferView":11,
		"min":[-0.125,
		-0.11999999731779099,
		-1.469576190014977e-17],
		"type":"VEC3",
		"componentType":5126,
		"count":74,
		"byteOffset":0,
		"max":[0.125,
		0.11999999731779099,
		0.11999999731779099]
	},
	{
		"bufferView":11,
		"min":[-1.0,
		-0.9951861500740051,
		0.0],
		"type":"VEC3",
		"componentType":5126,
		"count":74,
		"byteOffset":12,
		"max":[1.0,
		0.9951861500740051,
		0.9994615912437439]
	},
	{
		"bufferView":11,
		"min":[0.0,
		0.0],
		"type":"VEC2",
		"componentType":5126,
		"count":74,
		"byteOffset":24,
		"max":[1.0,
		1.0]
	},
	{
		"bufferView":12,
		"min":[0],
		"type":"SCALAR",
		"componentType":5123,
		"count":1278,
		"byteOffset":0,
		"max":[433]
	},
	{
		"bufferView":13,
		"min":[-0.2750000059604645,
		-0.039586618542671207,
		0.10000000149011612],
		"type":"VEC3",
		"componentType":5126,
		"count":434,
		"byteOffset":0,
		"max":[0.27411502599716189,
		0.039586618542671207,
		0.10599999874830246]
	},
	{
		"bufferView":13,
		"min":[-1.0,
		-0.9993585348129273,
		0.0],
		"type":"VEC3",
		"componentType":5126,
		"count":434,
		"byteOffset":12,
		"max":[0.9998236894607544,
		0.9993585348129273,
		1.0]
	},
	{
		"bufferView":13,
		"min":[0.1868189126253128,
		0.20046117901802064],
		"type":"VEC2",
		"componentType":5126,
		"count":434,
		"byteOffset":24,
		"max":[0.8900368809700012,
		0.8740721940994263]
	},
	{
		"bufferView":14,
		"min":[0],
		"type":"SCALAR",
		"componentType":5123,
		"count":2016,
		"byteOffset":0,
		"max":[449]
	},
	{
		"bufferView":15,
		"min":[-0.26841992139816286,
		-0.0059486692771315578,
		0.10579254478216171],
		"type":"VEC3",
		"componentType":5126,
		"count":450,
		"byteOffset":0,
		"max":[0.26841992139816286,
		0.0059486692771315578,
		0.10879254341125488]
	},
	{
		"bufferView":15,
		"min":[-0.9979096055030823,
		-0.9979096055030823,
		0.0],
		"type":"VEC3",
		"componentType":5126,
		"count":450,
		"byteOffset":12,
		"max":[0.9979096055030823,
		0.9979096055030823,
		1.0]
	},
	{
		"bufferView":15,
		"min":[0.119107685983181,
		0.21845021843910218],
		"type":"VEC2",
		"componentType":5126,
		"count":450,
		"byteOffset":24,
		"max":[0.8972547650337219,
		0.8613100051879883]
	}],
	"bufferViews":[{
		"buffer":0,
		"byteOffset":0,
		"byteLength":1932,
		"target":34963
	},
	{
		"buffer":0,
		"byteOffset":1932,
		"byteLength":9024,
		"target":34962,
		"byteStride":32
	},
	{
		"buffer":1,
		"byteOffset":0,
		"byteLength":2808,
		"target":34963
	},
	{
		"buffer":1,
		"byteOffset":2808,
		"byteLength":11840,
		"target":34962,
		"byteStride":32
	},
	{
		"buffer":2,
		"byteOffset":0,
		"byteLength":12,
		"target":34963
	},
	{
		"buffer":2,
		"byteOffset":12,
		"byteLength":128,
		"target":34962,
		"byteStride":32
	},
	{
		"buffer":3,
		"byteOffset":0,
		"byteLength":12,
		"target":34963
	},
	{
		"buffer":3,
		"byteOffset":12,
		"byteLength":128,
		"target":34962,
		"byteStride":32
	},
	{
		"buffer":4,
		"byteOffset":0,
		"byteLength":384,
		"target":34963
	},
	{
		"buffer":4,
		"byteOffset":384,
		"byteLength":2368,
		"target":34962,
		"byteStride":32
	},
	{
		"buffer":5,
		"byteOffset":0,
		"byteLength":384,
		"target":34963
	},
	{
		"buffer":5,
		"byteOffset":384,
		"byteLength":2368,
		"target":34962,
		"byteStride":32
	},
	{
		"buffer":6,
		"byteOffset":0,
		"byteLength":2556,
		"target":34963
	},
	{
		"buffer":6,
		"byteOffset":2556,
		"byteLength":13888,
		"target":34962,
		"byteStride":32
	},
	{
		"buffer":7,
		"byteOffset":0,
		"byteLength":4032,
		"target":34963
	},
	{
		"buffer":7,
		"byteOffset":4032,
		"byteLength":14400,
		"target":34962,
		"byteStride":32
	}],
	"buffers":[{
		"uri":"data:application/octet-stream;base64,",
		"byteLength":10956
	},
	{
		"uri":"data:application/octet-stream;base64,",
		"byteLength":14648
	},
	{
		"uri":"data:application/octet-stream;base64,",
		"byteLength":140
	},
	{
		"uri":"data:application/octet-stream;base64,",
		"byteLength":140
	},
	{
		"uri":"data:application/octet-stream;base64,",
		"byteLength":2752
	},
	{
		"uri":"data:application/octet-stream;base64,",
		"byteLength":2752
	},
	{
		"uri":"data:application/octet-stream;base64,",
		"byteLength":16444
	},
	{
		"uri":"data:application/octet-stream;base64,",
		"byteLength":18432
	}],
	"materials":[{
		"pbrMetallicRoughness":{
			"baseColorFactor":[1.0,
			1.0,
			1.0,
			1.0],
			"metallicFactor":1.0,
			"roughnessFactor":1.0
		},
		"doubleSided":false,
		"emissiveFactor":[0.0,
		0.0,
		0.0],
		"alphaMode":"OPAQUE",
		"name":""
	},
	{
		"pbrMetallicRoughness":{
			"baseColorFactor":[1.0,
			1.0,
			1.0,
			1.0],
			"metallicFactor":1.0,
			"roughnessFactor":1.0
		},
		"doubleSided":false,
		"emissiveFactor":[0.0,
		0.0,
		0.0],
		"alphaMode":"OPAQUE",
		"name":""
	},
	{
		"pbrMetallicRoughness":{
			"baseColorFactor":[1.0,
			1.0,
			1.0,
			1.0],
			"metallicFactor":1.0,
			"roughnessFactor":1.0
		},
		"doubleSided":false,
		"emissiveFactor":[0.0,
		0.0,
		0.0],
		"alphaMode":"OPAQUE",
		"name":""
	},
	{
		"pbrMetallicRoughness":{
			"baseColorFactor":[1.0,
			1.0,
			1.0,
			1.0],
			"metallicFactor":1.0,
			"roughnessFactor":1.0
		},
		"doubleSided":false,
		"emissiveFactor":[0.0,
		0.0,
		0.0],
		"alphaMode":"OPAQUE",
		"name":""
	},
	{
		"pbrMetallicRoughness":{
			"baseColorFactor":[1.0,
			1.0,
			1.0,
			1.0],
			"metallicFactor":1.0,
			"roughnessFactor":1.0
		},
		"doubleSided":false,
		"emissiveFactor":[0.0,
		0.0,
		0.0],
		"alphaMode":"OPAQUE",
		"name":""
	},
	{
		"pbrMetallicRoughness":{
			"baseColorFactor":[1.0,
			1.0,
			1.0,
			1.0],
			"metallicFactor":1.0,
			"roughnessFactor":1.0
		},
		"doubleSided":false,
		"emissiveFactor":[0.0,
		0.0,
		0.0],
		"alphaMode":"OPAQUE",
		"name":""
	}]
}